<svg width="420" height="220" viewBox="0 0 420 220" fill="none" xmlns="http://www.w3.org/2000/svg">
  <rect width="420" height="220" rx="24" fill="#F9F8FF"/>
  <ellipse cx="210" cy="184" rx="150" ry="18" fill="#DEDDF1"/>
  <path d="M88 141c0-8 5-15 12-19l42-20c10-5 22-8 34-8h70c10 0 20 3 29 8l28 16c7 4 11 11 11 19v24H88v-20z" fill="#FFFFFF" stroke="#BBB9DB" stroke-width="4"/>
  <path d="M172 98h62c9 0 17 2 25 7l16 11h-108l5-18z" fill="#F0EEFF"/>
  <circle cx="146" cy="164" r="23" fill="#353B56"/><circle cx="146" cy="164" r="12" fill="#A9B1CD"/>
  <circle cx="278" cy="164" r="23" fill="#353B56"/><circle cx="278" cy="164" r="12" fill="#A9B1CD"/>
  <rect x="93" y="130" width="20" height="8" rx="4" fill="#12B86A"/>
  <rect x="299" y="130" width="22" height="8" rx="4" fill="#FF8A00"/>
</svg>
