<svg width="420" height="160" viewBox="0 0 420 160" fill="none" xmlns="http://www.w3.org/2000/svg">
  <rect width="420" height="160" rx="24" fill="#EAF8F1"/>
  <circle cx="82" cy="80" r="42" fill="#D1F1DE"/>
  <path d="M68 84c11-21 31-26 51-25-6 11-17 25-31 33-8 5-17 8-28 8 1-6 4-11 8-16z" fill="#12B86A"/>
  <path d="M95 55c8 6 17 17 18 31-10-4-19-13-24-21-5-7-6-13-7-19 5 1 9 4 13 9z" fill="#63C98E"/>
  <circle cx="288" cy="84" r="34" fill="#FFFFFF" stroke="#B6DDC8" stroke-width="4"/>
  <path d="M264 86h48" stroke="#12B86A" stroke-width="6" stroke-linecap="round"/>
  <path d="M288 62v48" stroke="#12B86A" stroke-width="6" stroke-linecap="round"/>
</svg>
