<svg width="120" height="80" viewBox="0 0 120 80" fill="none" xmlns="http://www.w3.org/2000/svg">
  <rect x="14" y="26" width="92" height="46" rx="10" fill="#10B981"/>
  <rect x="14" y="26" width="92" height="46" rx="10" stroke="#059669"/>
  <rect x="56" y="26" width="8" height="46" fill="#F59E0B"/>
  <rect x="14" y="42" width="92" height="8" fill="#F59E0B"/>
  <path d="M59 26C47 25 41 15 48 10C54 6 62 12 62 18V26H59Z" fill="#F97316"/>
  <path d="M61 26C73 25 79 15 72 10C66 6 58 12 58 18V26H61Z" fill="#FB923C"/>
  <circle cx="9" cy="10" r="2" fill="#F97316"/>
  <circle cx="16" cy="20" r="2" fill="#10B981"/>
  <circle cx="111" cy="14" r="2" fill="#10B981"/>
  <circle cx="101" cy="9" r="2" fill="#F97316"/>
</svg>
